<svg width="62" height="62" viewBox="0 0 62 62" fill="none" xmlns="http://www.w3.org/2000/svg">
<path d="M57.4341 43.0817C57.3081 41.8502 56.2026 40.7642 54.1178 39.8526C53.485 38.9143 52.5566 38.2145 51.4802 37.8648C51.3597 36.6001 50.7724 35.4257 49.833 34.5706C48.8936 33.7154 47.6693 33.2408 46.399 33.2393C45.0705 33.2393 43.8293 33.7435 42.8887 34.6551C41.9481 33.7435 40.7068 33.2393 39.3784 33.2393C38.0499 33.2393 36.8087 33.7435 35.8681 34.6551C34.9282 33.7421 33.668 33.2338 32.3578 33.2393C31.0874 33.2408 29.8631 33.7154 28.9237 34.5706C27.9843 35.4257 27.3971 36.6001 27.2765 37.8648C26.2038 38.2215 25.2774 38.9197 24.639 39.8526C22.5638 40.7642 21.4487 41.8502 21.3226 43.0817C20.5178 44.5169 15.679 53.409 17.7153 56.5217C20.1299 60.2163 30.8838 61.5351 39.3687 61.5351C47.8535 61.5351 58.6075 60.226 61.022 56.5217C63.0778 53.409 58.239 44.5169 57.4341 43.0817ZM55.8923 42.9072C55.6111 42.752 55.3202 42.6066 55.0099 42.5096C55.0002 42.3157 54.9711 42.1314 54.942 41.9375C55.4171 42.2575 55.7371 42.5872 55.8923 42.9072ZM28.1396 39.1254C28.479 39.0575 28.7117 38.6793 28.7117 38.3302C28.7117 36.3132 30.3505 34.6745 32.3675 34.6745C33.5311 34.6745 34.5978 35.2175 35.2959 36.1678C35.5675 36.5363 36.1784 36.5363 36.4596 36.1678C36.7951 35.7053 37.2353 35.3288 37.7444 35.0692C38.2534 34.8096 38.8167 34.6744 39.3881 34.6745C40.5517 34.6745 41.6184 35.2175 42.3165 36.1678C42.5881 36.5363 43.199 36.5363 43.4802 36.1678C43.8157 35.7053 44.2559 35.3288 44.765 35.0692C45.274 34.8096 45.8373 34.6744 46.4087 34.6745C48.4256 34.6745 50.0644 36.3132 50.0644 38.272C50.0644 38.3011 50.0547 38.369 50.0547 38.3981C50.045 38.7472 50.2875 39.0575 50.6365 39.1254C51.4657 39.2913 52.2116 39.7396 52.7473 40.3938C53.2831 41.048 53.5755 41.8677 53.5747 42.7132C53.5747 42.752 53.565 42.7811 53.565 42.8199C53.5553 42.8781 53.5456 42.9363 53.5456 42.9945C53.5165 43.3629 53.7687 43.6926 54.1275 43.7605C54.5929 43.8478 55.039 44.0417 55.4462 44.3229C53.6911 45.952 47.902 47.6878 39.3978 47.6878C30.8935 47.6878 25.1044 45.952 23.3493 44.3229C23.7565 44.0514 24.2026 43.8575 24.6681 43.7605C25.0268 43.6926 25.279 43.3629 25.2499 42.9945C25.2499 42.9363 25.2402 42.8781 25.2305 42.8199C25.2305 42.7811 25.2208 42.752 25.2208 42.7132C25.2156 41.8695 25.504 41.0502 26.0365 40.3956C26.5689 39.7411 27.3124 39.292 28.1396 39.1254ZM23.8341 41.9278C23.805 42.112 23.7759 42.306 23.7662 42.4999C23.4559 42.6066 23.165 42.7423 22.8838 42.8975C23.039 42.5872 23.359 42.2575 23.8341 41.9278ZM59.8293 55.746C58.1517 58.306 49.7444 60.0999 39.3881 60.0999C29.0317 60.0999 20.6244 58.306 18.9468 55.746C17.8608 54.0878 20.0135 48.7157 21.9723 44.9726C24.2317 47.6878 32.0087 49.1326 39.3881 49.1326C46.7675 49.1326 54.5541 47.6878 56.8038 44.9726C58.7626 48.7157 60.9153 54.0781 59.8293 55.746Z" fill="#F8F1E2"/>
<path d="M49.1046 41.9572C49.4246 42.0251 49.667 42.2869 49.7155 42.6069C49.7058 42.6651 49.7058 42.7233 49.6961 42.7815C49.667 43.179 49.958 43.5281 50.3555 43.5572H50.4137C50.7822 43.5572 51.1022 43.2663 51.1313 42.8881L51.1507 42.7039C51.1604 42.6554 51.1604 42.6069 51.1507 42.5584C51.1169 42.0731 50.9251 41.6123 50.6047 41.2463C50.2842 40.8803 49.8527 40.6293 49.3761 40.5318C49.1897 40.4946 48.9962 40.533 48.838 40.6385C48.6798 40.7439 48.5699 40.9078 48.5325 41.0942C48.4646 41.5015 48.7167 41.8796 49.1046 41.9572ZM45.798 38.8445C45.8852 38.7281 46.0889 38.5245 46.4089 38.5245C46.8161 38.5245 47.1555 38.8445 47.1749 39.2518C47.1943 39.6299 47.5143 39.9305 47.8925 39.9305H47.941C48.3386 39.9015 48.6392 39.5621 48.6198 39.1645C48.5852 38.602 48.337 38.0739 47.9261 37.6882C47.5152 37.3025 46.9725 37.0883 46.4089 37.0893C45.4198 37.0893 44.838 37.7196 44.644 38.0009C44.4113 38.3209 44.4695 38.7766 44.7895 39.0093C45.1095 39.2421 45.5555 39.1742 45.798 38.8445ZM43.2186 45.7875C43.7907 45.7875 44.3531 45.5742 44.7895 45.1378C45.4877 44.4396 45.4489 43.5766 45.4004 43.2469C45.3693 43.0579 45.2659 42.8885 45.112 42.7745C44.9582 42.6604 44.766 42.6108 44.5761 42.636C44.1786 42.6942 43.907 43.0627 43.9652 43.4602C43.9846 43.6057 43.9943 43.8966 43.7616 44.1196C43.4707 44.4105 43.0052 44.4202 42.7046 44.1487C42.404 43.8772 41.9483 43.916 41.6864 44.2069C41.4246 44.5075 41.4537 44.9633 41.7446 45.2251C42.1713 45.6033 42.6949 45.7875 43.2186 45.7875ZM38.7773 38.8445C38.8646 38.7281 39.0683 38.5245 39.3883 38.5245C39.7083 38.5245 39.9119 38.7281 39.9992 38.8445C40.0555 38.9207 40.1264 38.9849 40.2077 39.0336C40.2891 39.0822 40.3793 39.1142 40.4731 39.1277C40.5668 39.1412 40.6624 39.136 40.7541 39.1124C40.8459 39.0887 40.9321 39.0471 41.0076 38.9899C41.3276 38.7475 41.3955 38.3015 41.1531 37.9815C40.9495 37.7099 40.3773 37.0699 39.3786 37.0699C38.3895 37.0699 37.8076 37.7002 37.604 37.9815C37.3713 38.3015 37.4295 38.7572 37.7495 38.9899C38.0695 39.2227 38.5446 39.1742 38.7773 38.8445ZM30.8355 39.9111H30.884C31.2622 39.9111 31.5725 39.6202 31.6016 39.2421C31.6307 38.8445 31.9701 38.5245 32.3676 38.5245C32.6876 38.5245 32.8913 38.7281 32.9786 38.8445C33.2113 39.1645 33.667 39.2324 33.987 38.9996C34.307 38.7572 34.3749 38.3112 34.1325 37.9912C33.9289 37.7196 33.3567 37.0796 32.358 37.0796C31.204 37.0796 30.2343 37.9815 30.147 39.1354C30.1373 39.533 30.438 39.8821 30.8355 39.9111ZM33.958 42.3839C33.9095 42.7233 33.8707 43.5766 34.5689 44.2748C34.9955 44.7015 35.5676 44.9245 36.1398 44.9245C36.6537 44.9245 37.1677 44.7499 37.5846 44.3815C37.7286 44.2554 37.8167 44.0774 37.8294 43.8864C37.8422 43.6955 37.7785 43.5073 37.6525 43.3633C37.5265 43.2193 37.3484 43.1312 37.1575 43.1185C36.9665 43.1057 36.7783 43.1694 36.6343 43.2954C36.4865 43.421 36.297 43.4868 36.1031 43.4796C35.9093 43.4724 35.7251 43.3928 35.587 43.2566C35.5034 43.1706 35.4414 43.066 35.406 42.9514C35.3706 42.8368 35.3628 42.7154 35.3834 42.5972C35.4107 42.4071 35.3618 42.2138 35.2474 42.0595C35.133 41.9052 34.9624 41.8022 34.7725 41.773C34.5839 41.7484 34.3931 41.7986 34.241 41.9127C34.0888 42.0269 33.9872 42.1959 33.958 42.3839ZM27.6355 42.8881C27.6646 43.2663 27.9846 43.5572 28.3531 43.5572H28.4113C28.8089 43.5281 29.1095 43.179 29.0804 42.7815C29.0804 42.7233 29.0707 42.6651 29.061 42.6069C29.1095 42.2869 29.3519 42.0251 29.6719 41.9572C30.0598 41.8796 30.3119 41.5015 30.2343 41.1136C30.1567 40.7257 29.7689 40.4736 29.3907 40.5512C28.4113 40.7451 27.684 41.579 27.6161 42.5681V42.7136C27.6258 42.7621 27.6355 42.8299 27.6355 42.8881ZM29.1676 18.8105C27.5483 18.8105 26.1422 19.8869 25.6767 21.3996H13.9337C13.704 20.6522 13.2413 19.9979 12.6132 19.5321C11.9852 19.0663 11.2247 18.8135 10.4428 18.8105C8.41613 18.8105 6.77734 20.459 6.77734 22.476C6.77734 23.3778 7.11674 24.2408 7.69856 24.9099C7.23053 25.4388 6.92512 26.0916 6.81901 26.7898C6.7129 27.488 6.8106 28.2021 7.10037 28.8461C7.39015 29.4902 7.85968 30.0369 8.45258 30.4206C9.04549 30.8043 9.73655 31.0088 10.4428 31.0093C12.0622 31.0093 13.4683 29.933 13.9337 28.4299H25.667C25.8973 29.1763 26.3604 29.8293 26.9885 30.2934C27.6167 30.7575 28.3769 31.0084 29.158 31.0093C29.8642 31.0088 30.5553 30.8043 31.1482 30.4206C31.7411 30.0369 32.2106 29.4902 32.5004 28.8461C32.7902 28.2021 32.8878 27.488 32.7817 26.7898C32.6756 26.0916 32.3702 25.4388 31.9022 24.9099C32.4937 24.2505 32.8234 23.3875 32.8234 22.476C32.824 21.9953 32.73 21.5191 32.5466 21.0748C32.3632 20.6304 32.0941 20.2265 31.7547 19.8861C31.4152 19.5458 31.012 19.2756 30.5681 19.091C30.1243 18.9065 29.6484 18.8112 29.1676 18.8105ZM30.4186 25.5112C30.8126 25.7799 31.11 26.168 31.2673 26.6183C31.4245 27.0686 31.4333 27.5574 31.2923 28.013C31.1512 28.4687 30.8679 28.8671 30.4837 29.1498C30.0996 29.4326 29.6349 29.5847 29.158 29.5839C28.0428 29.5839 27.1022 28.7402 26.9664 27.6348C26.944 27.4604 26.8588 27.3002 26.7267 27.1841C26.5946 27.0681 26.4247 27.0042 26.2489 27.0045H13.3519C12.9834 27.0045 12.6828 27.276 12.6343 27.6348C12.5689 28.1708 12.3102 28.6645 11.9068 29.0233C11.5033 29.3822 10.9828 29.5815 10.4428 29.5839C9.96583 29.5847 9.50118 29.4326 9.11704 29.1498C8.7329 28.8671 8.44951 28.4687 8.30848 28.013C8.16745 27.5574 8.1762 27.0686 8.33346 26.6183C8.49071 26.168 8.78818 25.7799 9.18219 25.5112C9.37613 25.3754 9.49249 25.1524 9.49249 24.9196C9.49249 24.6869 9.37613 24.4542 9.18219 24.3281C8.78818 24.0593 8.49071 23.6713 8.33346 23.221C8.1762 22.7707 8.16745 22.2819 8.30848 21.8262C8.44951 21.3706 8.7329 20.9722 9.11704 20.6894C9.50118 20.4067 9.96583 20.2546 10.4428 20.2554C11.558 20.2554 12.4986 21.099 12.6343 22.2045C12.6828 22.5633 12.9834 22.8348 13.3519 22.8348H26.2489C26.6173 22.8348 26.918 22.5633 26.9664 22.2045C27.0318 21.6685 27.2905 21.1748 27.694 20.8159C28.0975 20.4571 28.618 20.2578 29.158 20.2554C29.6349 20.2546 30.0996 20.4067 30.4837 20.6894C30.8679 20.9722 31.1512 21.3706 31.2923 21.8262C31.4333 22.2819 31.4245 22.7707 31.2673 23.221C31.11 23.6713 30.8126 24.0593 30.4186 24.3281C30.2246 24.4639 30.1083 24.6869 30.1083 24.9196C30.1083 25.1524 30.2246 25.3754 30.4186 25.5112Z" fill="#F8F1E2"/>
<path d="M20.0038 60.1002H4.0717C2.87897 60.1002 1.90927 59.1305 1.90927 57.9281V15.5427H37.7008V31.1354C37.7008 31.533 38.0208 31.853 38.4184 31.853C38.8159 31.853 39.1359 31.533 39.1359 31.1354V14.8251C39.1359 14.7184 39.1068 14.6117 39.0681 14.5245V14.5051L35.0632 6.40811V1.18144C35.0632 0.783867 34.7432 0.463867 34.3456 0.463867H5.26442C4.86685 0.463867 4.54685 0.783867 4.54685 1.18144V6.40811L0.542 14.5051V14.5245C0.503212 14.6214 0.474121 14.7184 0.474121 14.8251V57.9281C0.474121 59.916 2.09351 61.5354 4.08139 61.5354H20.0135C20.4111 61.5354 20.7311 61.2154 20.7311 60.8178C20.7311 60.4202 20.4014 60.1002 20.0038 60.1002ZM5.982 1.89902H33.6281V5.84569H5.982V1.89902ZM5.71048 7.29053H33.8996L37.2644 14.0978H2.35533L5.71048 7.29053Z" fill="#F8F1E2"/>
</svg>
