<svg width="21" height="42" viewBox="0 0 21 42" fill="none" xmlns="http://www.w3.org/2000/svg">
<path d="M17.473 41.8114H3.5267C2.8529 41.8114 2.20671 41.5608 1.73026 41.1148C1.25382 40.6687 0.986157 40.0638 0.986157 39.433V27.5411C0.986157 26.9103 1.25382 26.3054 1.73026 25.8593C2.20671 25.4133 2.8529 25.1627 3.5267 25.1627H17.473C18.1468 25.1627 18.793 25.4133 19.2694 25.8593C19.7459 26.3054 20.0135 26.9103 20.0135 27.5411V39.433C20.0135 40.0638 19.7459 40.6687 19.2694 41.1148C18.793 41.5608 18.1468 41.8114 17.473 41.8114ZM3.5267 26.3519C3.1898 26.3519 2.8667 26.4772 2.62848 26.7002C2.39026 26.9232 2.25643 27.2257 2.25643 27.5411V39.433C2.25643 39.7484 2.39026 40.0509 2.62848 40.2739C2.8667 40.4969 3.1898 40.6222 3.5267 40.6222H17.473C17.8099 40.6222 18.133 40.4969 18.3712 40.2739C18.6094 40.0509 18.7433 39.7484 18.7433 39.433V27.5411C18.7433 27.2257 18.6094 26.9232 18.3712 26.7002C18.133 26.4772 17.8099 26.3519 17.473 26.3519H3.5267ZM17.2958 18.552H3.7039C2.98303 18.552 2.29168 18.2839 1.78194 17.8067C1.27221 17.3295 0.98584 16.6823 0.98584 16.0075C0.98584 15.3326 1.27221 14.6854 1.78194 14.2082C2.29168 13.731 2.98303 13.4629 3.7039 13.4629H17.2958C18.0167 13.4629 18.708 13.731 19.2178 14.2082C19.7275 14.6854 20.0139 15.3326 20.0139 16.0075C20.0139 16.6823 19.7275 17.3295 19.2178 17.8067C18.708 18.2839 18.0167 18.552 17.2958 18.552ZM3.7039 14.6527C3.31992 14.6527 2.95167 14.7955 2.68016 15.0497C2.40864 15.3038 2.25611 15.6486 2.25611 16.0081C2.25611 16.3675 2.40864 16.7123 2.68016 16.9664C2.95167 17.2206 3.31992 17.3634 3.7039 17.3634H17.2958C17.6798 17.3634 18.048 17.2206 18.3195 16.9664C18.5911 16.7123 18.7436 16.3675 18.7436 16.0081C18.7436 15.6486 18.5911 15.3038 18.3195 15.0497C18.048 14.7955 17.6798 14.6527 17.2958 14.6527H3.7039Z" fill="#F8F1E2"/>
<path d="M17.2956 22.4514H3.70368C2.99 22.4412 2.30925 22.1686 1.80842 21.6926C1.30758 21.2165 1.02686 20.5751 1.02686 19.9069C1.02686 19.2387 1.30758 18.5973 1.80842 18.1212C2.30925 17.6451 2.99 17.3725 3.70368 17.3623H17.2956C18.0093 17.3725 18.69 17.6451 19.1908 18.1212C19.6917 18.5973 19.9724 19.2387 19.9724 19.9069C19.9724 20.5751 19.6917 21.2165 19.1908 21.6926C18.69 22.1686 18.0093 22.4412 17.2956 22.4514ZM3.70368 18.5515C3.32496 18.5589 2.96442 18.705 2.69938 18.9584C2.43434 19.2117 2.2859 19.5522 2.2859 19.9069C2.2859 20.2615 2.43434 20.602 2.69938 20.8554C2.96442 21.1088 3.32496 21.2548 3.70368 21.2623H17.2956C17.6743 21.2548 18.0348 21.1088 18.2999 20.8554C18.5649 20.602 18.7134 20.2615 18.7134 19.9069C18.7134 19.5522 18.5649 19.2117 18.2999 18.9584C18.0348 18.705 17.6743 18.5589 17.2956 18.5515H3.70368Z" fill="#F8F1E2"/>
<path d="M17.2958 26.3518H3.7039C2.98303 26.3518 2.29168 26.0837 1.78194 25.6065C1.27221 25.1293 0.98584 24.4821 0.98584 23.8072C0.98584 23.1324 1.27221 22.4851 1.78194 22.0079C2.29168 21.5307 2.98303 21.2627 3.7039 21.2627H17.2958C18.0167 21.2627 18.708 21.5307 19.2178 22.0079C19.7275 22.4851 20.0139 23.1324 20.0139 23.8072C20.0139 24.4821 19.7275 25.1293 19.2178 25.6065C18.708 26.0837 18.0167 26.3518 17.2958 26.3518ZM3.7039 22.4518C3.31992 22.4518 2.95167 22.5946 2.68016 22.8488C2.40864 23.103 2.25611 23.4478 2.25611 23.8072C2.25611 24.1667 2.40864 24.5114 2.68016 24.7656C2.95167 25.0198 3.31992 25.1626 3.7039 25.1626H17.2958C17.6798 25.1626 18.048 25.0198 18.3195 24.7656C18.591 24.5114 18.7436 24.1667 18.7436 23.8072C18.7436 23.4478 18.591 23.103 18.3195 22.8488C18.048 22.5946 17.6798 22.4518 17.2958 22.4518H3.7039ZM17.473 14.6525H3.5267C2.8529 14.6525 2.20671 14.402 1.73026 13.9559C1.25382 13.5099 0.986157 12.905 0.986157 12.2742V11.0814C0.985719 10.489 1.22202 9.91779 1.6486 9.48017L6.83702 4.14844H14.1633L19.3517 9.48017C19.7783 9.91803 20.0146 10.4894 20.0142 11.082V12.2742C20.0142 12.5865 19.9484 12.8959 19.8207 13.1845C19.693 13.4731 19.5058 13.7353 19.2698 13.9561C19.0339 14.177 18.7537 14.3522 18.4454 14.4717C18.1371 14.5912 17.8067 14.6526 17.473 14.6525ZM7.39721 5.33763L2.58733 10.2805C2.37432 10.4996 2.25632 10.7852 2.25643 11.0814V12.2736C2.25643 12.589 2.39026 12.8914 2.62848 13.1145C2.8667 13.3375 3.1898 13.4628 3.5267 13.4628H17.473C17.8099 13.4628 18.133 13.3375 18.3712 13.1145C18.6094 12.8914 18.7433 12.589 18.7433 12.2736V11.0814C18.7435 10.785 18.6255 10.4991 18.4124 10.2799L13.6025 5.33703L7.39721 5.33763Z" fill="#F8F1E2"/>
<path d="M15.2772 5.33745H5.7222C5.37451 5.33698 5.0412 5.20747 4.79535 4.97731C4.54949 4.74714 4.41115 4.43511 4.41064 4.10962V1.41729C4.41115 1.09179 4.54949 0.779762 4.79535 0.5496C5.0412 0.319438 5.37451 0.189925 5.7222 0.189453H15.2772C15.6249 0.189925 15.9582 0.319438 16.204 0.5496C16.4499 0.779762 16.5882 1.09179 16.5887 1.41729V4.10962C16.5882 4.43511 16.4499 4.74714 16.204 4.97731C15.9582 5.20747 15.6249 5.33698 15.2772 5.33745ZM5.7222 1.37864L5.68091 1.41729V4.10962L15.2778 4.14826L15.3191 1.41789L5.7222 1.37864Z" fill="#F8F1E2"/>
</svg>
