<svg width="47" height="53" viewBox="0 0 47 53" fill="none" xmlns="http://www.w3.org/2000/svg">
<path d="M4.986 14.5453C5.0968 14.583 5.21397 14.5985 5.33078 14.5909C5.44759 14.5832 5.56174 14.5526 5.66667 14.5007C5.77161 14.4488 5.86526 14.3767 5.94225 14.2885C6.01924 14.2003 6.07805 14.0978 6.11531 13.9868L8.17265 7.90386C8.2425 7.68172 8.22257 7.44106 8.11713 7.23344C8.01169 7.02582 7.82912 6.86775 7.60855 6.7931C7.38798 6.71845 7.14694 6.73316 6.93708 6.83407C6.72722 6.93498 6.56523 7.11407 6.48581 7.33297L4.42847 13.4159C4.35266 13.6396 4.36881 13.8843 4.47337 14.0961C4.57792 14.3078 4.76232 14.4694 4.986 14.5453ZM7.06026 22.2875C7.17107 22.3252 7.28824 22.3407 7.40505 22.3331C7.52186 22.3254 7.63601 22.2948 7.74094 22.2429C7.84587 22.191 7.93952 22.1189 8.01651 22.0307C8.0935 21.9425 8.15232 21.84 8.18958 21.729L10.2478 15.6461C10.2853 15.5352 10.3006 15.4181 10.2928 15.3014C10.285 15.1847 10.2543 15.0706 10.2025 14.9658C10.1506 14.8609 10.0786 14.7673 9.99059 14.6902C9.90256 14.6132 9.80021 14.5542 9.68939 14.5168C9.57857 14.4793 9.46145 14.464 9.34473 14.4718C9.228 14.4795 9.11395 14.5102 9.00908 14.5621C8.90421 14.6139 8.81059 14.6859 8.73355 14.774C8.65651 14.862 8.59756 14.9644 8.56008 15.0752L6.50184 21.1581C6.46433 21.269 6.44901 21.3861 6.45678 21.5028C6.46454 21.6196 6.49523 21.7336 6.54709 21.8385C6.59894 21.9434 6.67096 22.037 6.75901 22.114C6.84706 22.1911 6.94943 22.25 7.06026 22.2875Z" fill="#F8F1E2"/>
<path d="M45.7658 22.9376C45.0084 22.9271 44.2709 23.1806 43.68 23.6546C44.7078 19.0456 43.0815 14.8623 39.8352 13.9922C38.9333 13.7599 37.9829 13.7983 37.1027 14.1026C37.3019 13.6135 37.6138 13.1784 38.0129 12.8326C38.3503 12.5772 38.7383 12.3969 39.1511 12.304C39.5639 12.2111 39.9918 12.2076 40.406 12.2938C40.6401 12.3257 40.8773 12.2633 41.0654 12.1203C41.2534 11.9773 41.377 11.7655 41.4089 11.5314C41.4408 11.2973 41.3784 11.0602 41.2354 10.8721C41.0924 10.684 40.8806 10.5604 40.6465 10.5286C39.9896 10.4067 39.3143 10.4263 38.6656 10.586C38.0169 10.7457 37.4097 11.0419 36.8845 11.4548C36.1838 12.0562 35.6524 12.8302 35.3428 13.7001C34.7232 12.9513 33.8894 12.41 32.9533 12.1486C32.2789 11.9833 31.5778 11.9572 30.893 12.0721C30.2082 12.1869 29.554 12.4403 28.9704 12.8166C28.0396 11.5056 26.7623 10.4796 25.2815 9.85346V7.79701C25.5177 7.79701 25.7442 7.70318 25.9112 7.53615C26.0782 7.36913 26.1721 7.14259 26.1721 6.90639V3.34389C26.1721 3.10768 26.0782 2.88114 25.9112 2.71412C25.7442 2.54709 25.5177 2.45326 25.2815 2.45326H18.1565C17.9202 2.45326 17.6937 2.54709 17.5267 2.71412C17.3597 2.88114 17.2658 3.10768 17.2658 3.34389V6.90639C17.2658 7.14259 17.3597 7.36913 17.5267 7.53615C17.6937 7.70318 17.9202 7.79701 18.1565 7.79701V9.85257C16.4307 10.5796 14.9868 11.846 14.0409 13.4623C11.3877 6.5724 7.35851 -0.229302 3.64817 0.766417C1.5935 1.31682 0.4535 4.0929 0.350187 8.7954C0.370505 13.6255 1.01593 18.4327 2.27037 23.0971C1.9329 22.9897 1.58069 22.9359 1.22656 22.9376C0.990354 22.9376 0.76382 23.0315 0.596795 23.1985C0.429771 23.3655 0.335938 23.5921 0.335938 23.8283V51.4376C0.335938 51.6738 0.429771 51.9004 0.596795 52.0674C0.76382 52.2344 0.990354 52.3283 1.22656 52.3283H45.7658C46.002 52.3283 46.2286 52.2344 46.3956 52.0674C46.5626 51.9004 46.6564 51.6738 46.6564 51.4376V23.8283C46.6564 23.5921 46.5626 23.3655 46.3956 23.1985C46.2286 23.0315 46.002 22.9376 45.7658 22.9376ZM32.492 13.8684C33.0363 14.0551 33.5292 14.3672 33.9306 14.7795C34.3321 15.1918 34.631 15.6928 34.8031 16.2419C34.8543 16.3711 34.9351 16.4865 35.0389 16.5789C35.1426 16.6713 35.2666 16.7382 35.4009 16.7741C35.5351 16.81 35.6759 16.814 35.812 16.7858C35.948 16.7576 36.0756 16.6979 36.1845 16.6115C36.6085 16.2223 37.118 15.9381 37.672 15.7819C38.226 15.6256 38.8089 15.6017 39.3738 15.712C41.7046 16.3372 42.8303 20.0164 41.831 23.7472C41.6841 24.2809 41.4965 24.8025 41.27 25.3076C40.6038 25.2951 40.276 24.9887 39.7292 24.4063C39.3999 23.9515 38.9675 23.5814 38.4674 23.3261C37.9673 23.0708 37.4139 22.9377 36.8525 22.9377C36.291 22.9377 35.7376 23.0708 35.2375 23.3261C34.7374 23.5814 34.305 23.9515 33.9757 24.4063C33.4182 25.0012 33.0949 25.312 32.3993 25.312C31.7037 25.312 31.3822 25.0012 30.8229 24.4063C30.4852 23.9612 30.0515 23.5981 29.5541 23.3438C29.0566 23.0895 28.5083 22.9507 27.9498 22.9376C27.2744 22.9279 26.6131 23.1304 26.059 23.5165C25.8986 22.204 25.9963 20.8728 26.3466 19.5978C27.3459 15.8687 30.1478 13.2405 32.492 13.8684ZM19.0471 4.23451H24.3908V6.01576H19.0471V4.23451ZM19.3285 11.3141C19.5059 11.255 19.6602 11.1416 19.7696 10.9899C19.8789 10.8382 19.9377 10.6559 19.9377 10.4689V7.79701H23.5002V10.4689C23.5002 10.6559 23.559 10.8382 23.6683 10.9899C23.7777 11.1416 23.932 11.255 24.1094 11.3141C25.5085 11.784 26.7192 12.6918 27.5623 13.9031C26.1337 15.3544 25.1198 17.1617 24.6259 19.1373C24.0925 21.0298 24.0545 23.0275 24.5155 24.9389C24.2353 25.1871 23.8718 25.3206 23.4975 25.3129C22.8028 25.3129 22.4787 25.0012 21.9211 24.4063C21.5921 23.9516 21.1599 23.5814 20.6601 23.3261C20.1603 23.0708 19.607 22.9377 19.0457 22.9377C18.4845 22.9377 17.9312 23.0708 17.4314 23.3261C16.9315 23.5814 16.4994 23.9516 16.1704 24.4063C15.6128 25.0021 15.2886 25.3129 14.5948 25.3129L14.594 17.8833C14.5926 16.4297 15.0493 15.0126 15.8992 13.8333C16.7492 12.654 17.9491 11.7726 19.3285 11.3141ZM4.1113 2.48711C5.99141 1.98657 9.93153 6.98565 13.0541 15.9498C12.9016 16.5829 12.821 17.2312 12.8136 17.8825V24.1907C12.4855 23.8007 12.0765 23.4867 11.615 23.2703C11.1535 23.0539 10.6505 22.9404 10.1408 22.9376C9.58166 22.9505 9.03259 23.0893 8.53441 23.3435C8.03623 23.5978 7.60174 23.961 7.26322 24.4063C6.7048 25.0012 6.37972 25.3129 5.68325 25.3129C5.48248 25.3168 5.28293 25.2809 5.09613 25.2072C4.90933 25.1335 4.73897 25.0235 4.59491 24.8837C4.4765 24.4756 4.36161 24.0664 4.25023 23.6564C2.87746 18.8342 2.165 13.8482 2.13233 8.83459C2.22673 4.51951 3.21622 2.72668 4.10951 2.48711H4.1113ZM2.1163 24.9816C2.36741 25.1719 2.59813 25.3877 2.80475 25.6255C3.14336 26.0706 3.57789 26.4337 4.07607 26.6878C4.57424 26.9419 5.12327 27.0805 5.68236 27.0933C6.24175 27.0808 6.79113 26.9423 7.28964 26.6882C7.78814 26.4341 8.22296 26.0709 8.56175 25.6255C9.12017 25.0288 9.44347 24.7189 10.1399 24.7189C10.8364 24.7189 11.1588 25.0297 11.7163 25.6247C12.0453 26.0795 12.4775 26.4499 12.9775 26.7053C13.4774 26.9607 14.0308 27.0939 14.5922 27.0939C15.1536 27.0939 15.7069 26.9607 16.2069 26.7053C16.7068 26.4499 17.139 26.0795 17.468 25.6247C18.0264 25.0297 18.3497 24.7189 19.0444 24.7189C19.7391 24.7189 20.0624 25.0297 20.6208 25.6247C20.9498 26.0795 21.382 26.4499 21.8819 26.7053C22.3819 26.9607 22.9352 27.0939 23.4966 27.0939C24.058 27.0939 24.6114 26.9607 25.1113 26.7053C25.6113 26.4499 26.0435 26.0795 26.3725 25.6247C26.9309 25.0297 27.2542 24.7189 27.9489 24.7189C28.6436 24.7189 28.9669 25.0297 29.5253 25.6247C29.8543 26.0794 30.2865 26.4496 30.7863 26.7049C31.2861 26.9602 31.8394 27.0933 32.4007 27.0933C32.9619 27.0933 33.5152 26.9602 34.015 26.7049C34.5149 26.4496 34.947 26.0794 35.276 25.6247C35.482 25.3898 35.7119 25.177 35.9618 24.9896V50.547H2.11808L2.1163 24.9816ZM44.8752 50.547H37.7422V24.9887C37.9933 25.1764 38.224 25.3898 38.4306 25.6255C38.7603 26.0801 39.193 26.4501 39.6933 26.7053C40.1936 26.9604 40.7471 27.0935 41.3087 27.0935C41.8703 27.0935 42.4238 26.9604 42.9241 26.7053C43.4243 26.4501 43.857 26.0801 44.1867 25.6255C44.3934 25.3877 44.6241 25.1719 44.8752 24.9816V50.547Z" fill="#F8F1E2"/>
</svg>
