<svg width="74" height="74" viewBox="0 0 74 74" fill="none" xmlns="http://www.w3.org/2000/svg">
<path d="M37 0C16.5655 0 0 16.5655 0 37C0 57.4345 16.5655 74 37 74C57.4345 74 74 57.4345 74 37C73.9769 16.5751 57.4249 0.023125 37 0ZM70.1964 46.4893L67.879 45.7357L67.1155 48.079L69.4428 48.8351C68.4802 51.4607 67.2022 53.9597 65.6368 56.277L63.6634 54.8463L62.213 56.8419L64.1716 58.2651C62.448 60.465 60.4662 62.4497 58.2688 64.1765L56.8456 62.218L54.85 63.6684L56.2807 65.6417C53.9636 67.2054 51.465 68.4818 48.84 69.4428L48.084 67.1155L45.7406 67.879L46.4942 70.1964C43.8041 70.9666 41.0299 71.4052 38.2333 71.5025V69.0667H35.7667V71.5025C32.9718 71.4049 30.1993 70.9663 27.5107 70.1964L28.2643 67.879L25.921 67.1155L25.16 69.4428C22.5344 68.4802 20.0354 67.2022 17.7181 65.6368L19.1487 63.6634L17.1532 62.213L15.7299 64.1716C13.531 62.4463 11.5476 60.4628 9.82227 58.2639L11.7808 56.8406L10.3304 54.8451L8.35707 56.2758C6.7963 53.9598 5.52241 51.463 4.56333 48.84L6.89063 48.084L6.1272 45.7406L3.80977 46.4942C3.03744 43.8043 2.59675 41.0301 2.4975 38.2333H4.93333V35.7667H2.4975C2.59508 32.9718 3.0337 30.1993 3.8036 27.5107L6.12103 28.2643L6.88447 25.921L4.56333 25.16C5.52593 22.5344 6.80399 20.0354 8.3694 17.7181L10.3427 19.1487L11.7931 17.1532L9.8235 15.7312C11.5488 13.5323 13.5323 11.5488 15.7312 9.8235L17.1544 11.782L19.15 10.3316L17.7193 8.3583C20.0367 6.79674 22.5353 5.52242 25.16 4.56333L25.916 6.89063L28.2594 6.1272L27.5058 3.80977C30.1957 3.03744 32.9699 2.59675 35.7667 2.4975V4.93333H38.2333V2.4975C41.0282 2.59508 43.8007 3.0337 46.4893 3.8036L45.7357 6.12103L48.079 6.88447L48.84 4.56333C51.4656 5.52593 53.9646 6.80399 56.2819 8.3694L54.8513 10.3427L56.8468 11.7931L58.2701 9.8346C60.469 11.5599 62.4524 13.5434 64.1777 15.7423L62.2192 17.1655L63.6696 19.1611L65.6429 17.7304C67.2054 20.0441 68.4813 22.5389 69.4428 25.16L67.1155 25.916L67.879 28.2594L70.1964 27.5058C70.9666 30.1959 71.4052 32.9701 71.5025 35.7667H69.0667V38.2333H71.5025C71.4049 41.0282 70.9663 43.8007 70.1964 46.4893Z" fill="#F8F1E2"/>
<path d="M37 9.86621C22.0147 9.86621 9.8667 22.0142 9.8667 36.9995C9.8667 51.9849 22.0147 64.1329 37 64.1329C51.9853 64.1329 64.1334 51.9849 64.1334 36.9995C64.1164 22.0213 51.9782 9.88317 37 9.86621ZM37 61.6662C23.3769 61.6662 12.3334 50.6226 12.3334 36.9995C12.3334 23.3765 23.3769 12.3329 37 12.3329C50.6231 12.3329 61.6667 23.3765 61.6667 36.9995C61.6511 50.616 50.6166 61.6506 37 61.6662Z" fill="#F8F1E2"/>
<path d="M36.9999 16.0332C25.4203 16.0332 16.0332 25.4203 16.0332 36.9999C16.0332 48.5795 25.4203 57.9665 36.9999 57.9665C48.5795 57.9665 57.9665 48.5795 57.9665 36.9999C57.9536 25.4257 48.5741 16.0462 36.9999 16.0332ZM52.8593 27.5242C54.2932 29.9045 55.1675 32.5795 55.416 35.3472L47.6916 34.7231C47.4496 34.7028 47.2189 34.6115 47.0285 34.4606C46.8381 34.3097 46.6966 34.1059 46.6216 33.8748C46.5467 33.6437 46.5416 33.3956 46.6071 33.1617C46.6727 32.9278 46.8058 32.7184 46.9899 32.5599L52.8593 27.5242ZM41.118 18.9784L38.1382 26.1317C38.0446 26.3564 37.8865 26.5484 37.6839 26.6834C37.4813 26.8184 37.2433 26.8905 36.9999 26.8905C36.7564 26.8905 36.5184 26.8184 36.3158 26.6834C36.1133 26.5484 35.9552 26.3564 35.8615 26.1317L32.8818 18.9784C35.5901 18.3403 38.4097 18.3403 41.118 18.9784ZM21.1404 27.5239L27.0099 32.5599C27.1948 32.7183 27.3286 32.928 27.3945 33.1624C27.4604 33.3968 27.4555 33.6455 27.3803 33.8771C27.3051 34.1087 27.1631 34.3129 26.9721 34.4639C26.781 34.6149 26.5496 34.7059 26.3069 34.7256L18.5825 35.3497C18.831 32.5809 19.7057 29.9049 21.1404 27.5239ZM31.5263 46.4645L29.7355 54.01C27.184 52.9085 24.9119 51.2488 23.0866 49.1531H23.0829L29.6837 45.1263C29.8916 44.9994 30.1324 44.9368 30.3758 44.9465C30.6191 44.9563 30.8542 45.0378 31.0513 45.181C31.2483 45.3241 31.3986 45.5224 31.4832 45.7508C31.5677 45.9792 31.5827 46.2275 31.5263 46.4645ZM44.2642 54.01H44.2605L42.466 46.4645C42.4096 46.2275 42.4246 45.9792 42.5092 45.7508C42.5937 45.5224 42.744 45.3241 42.9411 45.181C43.1382 45.0378 43.3732 44.9563 43.6166 44.9465C43.8599 44.9368 44.1007 44.9994 44.3086 45.1263L50.9094 49.1531C49.0852 51.2484 46.8144 52.908 44.2642 54.01ZM45.5962 43.0198C43.8518 41.9554 41.5749 42.5066 40.5106 44.2509C40.0019 45.0846 39.8434 46.0855 40.0696 47.0355L41.9196 54.8154C38.7024 55.728 35.2948 55.728 32.0776 54.8154H32.0752L33.9252 47.0355C34.3978 45.0475 33.1694 43.0526 31.1813 42.5799C30.2319 42.3542 29.2317 42.5127 28.3986 43.021L21.5733 47.1872C19.7305 44.4001 18.6824 41.1633 18.5418 37.825L26.5067 37.1812C28.5432 37.0142 30.0588 35.2277 29.8919 33.1912C29.8122 32.2201 29.3527 31.3196 28.6132 30.6852L22.5452 25.4805C24.6303 22.8717 27.3807 20.8738 30.5064 19.6974L33.5798 27.0765C34.3653 28.9629 36.5314 29.8555 38.4179 29.0698C39.3194 28.6945 40.0359 27.9779 40.4113 27.0765L43.486 19.6974C46.6114 20.8742 49.3617 22.872 51.4471 25.4805L45.3865 30.6852C43.8356 32.0158 43.6571 34.3518 44.9877 35.9025C45.6229 36.6428 46.5246 37.1023 47.4968 37.1812L55.4616 37.825C55.3211 41.1633 54.273 44.4001 52.4301 47.1872L45.5962 43.0198Z" fill="#F8F1E2"/>
<path d="M37.0002 32.0664C34.2756 32.0664 32.0669 34.2752 32.0669 36.9997C32.0669 39.7243 34.2756 41.9331 37.0002 41.9331C39.7248 41.9331 41.9336 39.7243 41.9336 36.9997C41.9336 34.2752 39.7248 32.0664 37.0002 32.0664ZM37.0002 39.4664C35.6379 39.4664 34.5336 38.3621 34.5336 36.9997C34.5336 35.6374 35.6379 34.5331 37.0002 34.5331C38.3626 34.5331 39.4669 35.6374 39.4669 36.9997C39.4669 38.3621 38.3626 39.4664 37.0002 39.4664Z" fill="#F8F1E2"/>
</svg>
