<svg width="66" height="68" viewBox="0 0 66 68" fill="none" xmlns="http://www.w3.org/2000/svg">
<path d="M58.5489 54.8236H50.1339C49.5151 54.8236 49.0089 54.3173 49.0089 53.6986C49.0089 53.0798 49.5151 52.5736 50.1339 52.5736H58.5489C60.9451 52.5736 62.8914 50.6273 62.8914 48.2311V27.1711C62.8884 26.0213 62.4296 24.9197 61.6155 24.1078C60.8015 23.2958 59.6986 22.8398 58.5489 22.8398H7.45139C6.30163 22.8398 5.1988 23.2958 4.38475 24.1078C3.57069 24.9197 3.11187 26.0213 3.10889 27.1711V48.2311C3.10889 50.6273 5.05514 52.5736 7.45139 52.5736H15.8664C16.4851 52.5736 16.9914 53.0798 16.9914 53.6986C16.9914 54.3173 16.4851 54.8236 15.8664 54.8236H7.45139C3.81764 54.8236 0.858887 51.8648 0.858887 48.2311V27.1711C0.858887 23.5486 3.81764 20.5898 7.45139 20.5898H58.5601C62.1939 20.5898 65.1526 23.5373 65.1526 27.1711V48.2311C65.1414 51.8648 62.1826 54.8236 58.5489 54.8236Z" fill="white" fill-opacity="0.8"/>
<path d="M57.1204 22.8397H8.88037C8.26162 22.8397 7.75537 22.3334 7.75537 21.7147V9.71094C7.75537 9.09219 8.26162 8.58594 8.88037 8.58594H15.8666C16.4854 8.58594 16.9916 9.09219 16.9916 9.71094C16.9916 10.3297 16.4854 10.8359 15.8666 10.8359H10.0054V20.5897H55.9954V10.8359H50.1341C49.5154 10.8359 49.0091 10.3297 49.0091 9.71094C49.0091 9.09219 49.5154 8.58594 50.1341 8.58594H57.1204C57.7391 8.58594 58.2454 9.09219 58.2454 9.71094V21.7147C58.2454 22.3447 57.7391 22.8397 57.1204 22.8397Z" fill="white" fill-opacity="0.8"/>
<path d="M50.1451 22.8402H15.8551C15.2364 22.8402 14.7301 22.3339 14.7301 21.7152V1.84766C14.7301 1.22891 15.2364 0.722656 15.8551 0.722656H50.1339C50.7526 0.722656 51.2589 1.22891 51.2589 1.84766V21.7152C51.2701 22.3339 50.7639 22.8402 50.1451 22.8402ZM16.9801 20.5902H49.0089V2.97266H16.9801V20.5902ZM50.1451 67.2777H15.8551C15.2364 67.2777 14.7301 66.7714 14.7301 66.1527V40.9639C14.7301 40.3452 15.2364 39.8389 15.8551 39.8389H50.1339C50.7526 39.8389 51.2589 40.3452 51.2589 40.9639V66.1527C51.2701 66.7714 50.7639 67.2777 50.1451 67.2777ZM16.9801 65.0277H49.0089V42.0889H16.9801V65.0277ZM64.0164 33.2914H1.98389C1.36514 33.2914 0.858887 32.7852 0.858887 32.1664C0.858887 31.5477 1.36514 31.0414 1.98389 31.0414H64.0164C64.6351 31.0414 65.1414 31.5477 65.1414 32.1664C65.1414 32.7852 64.6351 33.2914 64.0164 33.2914Z" fill="white" fill-opacity="0.8"/>
<path d="M15.8554 67.2772C15.6429 67.2771 15.4347 67.2168 15.255 67.1035C15.0752 66.9901 14.9312 66.8283 14.8394 66.6366C14.7477 66.4449 14.712 66.2311 14.7365 66.02C14.761 65.8089 14.8447 65.6091 14.9779 65.4435L24.2366 53.9797C24.4504 53.721 24.7654 53.5635 25.1029 53.5635H25.1141C25.4404 53.5635 25.7666 53.7097 25.9804 53.9685L31.2904 60.291C31.3858 60.404 31.4579 60.5346 31.5028 60.6755C31.5476 60.8164 31.5642 60.9648 31.5517 61.1121C31.5392 61.2594 31.4977 61.4028 31.4297 61.5341C31.3617 61.6654 31.2685 61.782 31.1554 61.8772C30.6829 62.271 29.9741 62.2147 29.5691 61.7422L25.1366 56.466L16.7329 66.8722C16.5079 67.131 16.1929 67.2772 15.8554 67.2772Z" fill="white" fill-opacity="0.8"/>
<path d="M26.2729 67.2778C26.0603 67.2776 25.8522 67.2174 25.6724 67.1041C25.4927 66.9907 25.3486 66.8288 25.2569 66.6371C25.1652 66.4454 25.1295 66.2317 25.154 66.0206C25.1785 65.8095 25.2622 65.6097 25.3954 65.4441L37.0729 50.9766C37.2866 50.7178 37.6016 50.5603 37.9391 50.5603H37.9504C38.2766 50.5603 38.6029 50.7066 38.8054 50.9653L51.0004 65.4328C51.0956 65.5458 51.1677 65.6765 51.2125 65.8174C51.2573 65.9583 51.2739 66.1066 51.2614 66.2539C51.2488 66.4012 51.2074 66.5446 51.1395 66.6759C51.0715 66.8072 50.9784 66.9238 50.8654 67.0191C50.7523 67.1144 50.6217 67.1864 50.4808 67.2312C50.3399 67.276 50.1916 67.2926 50.0443 67.2801C49.897 67.2675 49.7536 67.2261 49.6223 67.1582C49.491 67.0902 49.3744 66.9971 49.2791 66.8841L37.9729 53.4516L27.1504 66.8616C26.9254 67.1316 26.5991 67.2778 26.2729 67.2778ZM29.7716 52.8103C28.1066 52.8103 26.7454 51.4491 26.7454 49.7841C26.7454 48.1191 28.1066 46.7578 29.7716 46.7578C31.4366 46.7578 32.7979 48.1191 32.7979 49.7841C32.7979 51.4491 31.4366 52.8103 29.7716 52.8103ZM29.7716 49.0078C29.3441 49.0078 28.9954 49.3566 28.9954 49.7841C28.9954 50.2116 29.3441 50.5603 29.7716 50.5603C30.1991 50.5603 30.5479 50.2116 30.5479 49.7841C30.5479 49.3566 30.1991 49.0078 29.7716 49.0078Z" fill="white" fill-opacity="0.8"/>
</svg>
