<svg width="81" height="81" viewBox="0 0 81 81" fill="none" xmlns="http://www.w3.org/2000/svg">
<path d="M80.9798 7.36749C80.9287 6.80998 80.3224 6.42665 79.9685 6.35372L48.3469 0.0255976C48.1433 -0.0152868 47.9327 -0.00513201 47.7339 0.0551562C47.5352 0.115444 47.3544 0.223991 47.2078 0.371113L0.361984 47.2081C0.13607 47.4384 0.0065981 47.7462 1.52395e-05 48.0687V55.6878C-4.43094e-05 55.9796 0.100704 56.2624 0.28521 56.4884C0.469715 56.7144 0.726645 56.8697 1.01252 56.9281L7.13055 58.152L0.370843 64.918C0.311043 64.9885 -0.00251601 65.3394 1.52395e-05 65.8128V73.4065C-4.43094e-05 73.6983 0.100704 73.9811 0.28521 74.2071C0.469715 74.4332 0.726645 74.5885 1.01252 74.6469L32.6531 80.975C32.7363 80.9926 32.8212 81.0011 32.9063 81.0003C33.2419 81.0002 33.5638 80.8668 33.8011 80.6295L80.6292 33.8013C80.8665 33.564 80.9999 33.2422 81 32.9065V25.3128C81.0001 25.021 80.8993 24.7382 80.7148 24.5122C80.5303 24.2862 80.2734 24.1308 79.9875 24.0725L73.8695 22.8473L80.6342 16.0826C80.8698 15.8445 81.0013 15.5227 81 15.1878V7.57125C80.999 7.50288 80.9923 7.43471 80.9798 7.36749ZM32.4899 70.7677L29.4119 70.1514C30.2018 67.7269 31.2906 65.4103 32.6531 63.255C32.7363 63.273 32.8212 63.2819 32.9063 63.2815C33.0732 63.2814 33.2385 63.2478 33.3923 63.1828C33.5454 63.1205 33.6844 63.0279 33.8011 62.9107L55.3078 41.4052C54.2707 44.1843 53.5742 47.0787 53.2335 50.0254L32.4899 70.7677ZM30.0042 62.7259C28.7136 64.909 27.6771 67.2327 26.9148 69.6514L15.5039 67.3733C16.175 64.9674 17.0288 62.6162 18.058 60.3402L30.0042 62.7259ZM32.4899 53.049L30.5218 52.6503C33.8637 37.4486 41.2966 23.4494 52.0172 12.1655L59.0629 4.75018L64.4203 5.82216L57.6302 12.2161C49.1938 20.1413 44.006 30.9206 43.0756 42.4582L32.4899 53.049ZM56.1254 4.16293L50.177 10.4214C39.1287 22.0536 31.4733 36.4868 28.0399 52.158L15.9013 49.7305C24.0853 35.3041 34.1744 22.0453 45.8966 10.3113L52.7247 3.48329L56.1254 4.16293ZM59.3654 14.0588L67.4654 6.43219L77.1626 8.37113L45.9662 39.5726C47.4494 29.8074 52.1678 20.8229 59.3654 14.0588ZM48.5101 2.63911L49.7454 2.89224L44.1108 8.52174C32.0255 20.6125 21.6527 34.3013 13.2815 49.2065L3.83233 47.3169L48.5101 2.63911ZM2.53127 49.6381L31.6406 55.46V60.4718L2.53127 54.65V49.6381ZM15.514 59.8276C14.5131 62.1127 13.6782 64.467 13.0157 66.8721L3.83233 65.0357L10.125 58.7493L15.514 59.8276ZM2.53127 67.3568L31.6406 73.1787V78.1906L2.53127 72.3687V67.3568ZM78.4688 32.3826L34.1719 76.6794V72.6649L78.4688 28.368V32.3826ZM77.1677 26.0899L56.3203 46.9335C57.353 41.4757 60.0629 36.4762 64.0723 32.6319L71.7091 24.9951L77.1677 26.0899ZM78.4688 14.6638L34.1719 58.9607V54.9461L78.4688 10.6493V14.6638Z" fill="#F8F1E2"/>
</svg>
