<svg width="48" height="48" viewBox="0 0 48 48" fill="none" xmlns="http://www.w3.org/2000/svg">
<g clip-path="url(#clip0_664_4393)">
<path d="M20 30L31.172 18.83C30.7068 18.3649 30.3635 17.7923 30.1724 17.1629C29.9814 16.5335 29.9485 15.8666 30.0767 15.2215C30.2049 14.5763 30.4903 13.9727 30.9074 13.4642C31.3246 12.9556 31.8608 12.5578 32.4685 12.3059C33.0761 12.0541 33.7365 11.9559 34.3911 12.0203C35.0458 12.0846 35.6744 12.3094 36.2214 12.6747C36.7685 13.04 37.2169 13.5345 37.5272 14.1146C37.8374 14.6946 37.9998 15.3422 38 16C38.6579 15.9995 39.3059 16.1613 39.8863 16.4711C40.4668 16.7809 40.9618 17.2291 41.3276 17.776C41.6934 18.3229 41.9187 18.9516 41.9834 19.6063C42.0482 20.2611 41.9504 20.9217 41.6988 21.5296C41.4472 22.1376 41.0495 22.6741 40.541 23.0916C40.0324 23.509 39.4288 23.7946 38.7835 23.923C38.1382 24.0514 37.4712 24.0187 36.8416 23.8277C36.2119 23.6366 35.6392 23.2933 35.174 22.828L28 30" stroke="#DDB96E" stroke-width="2" stroke-linecap="round" stroke-linejoin="round"/>
<path d="M24 26L16.828 18.83C17.2932 18.3649 17.6365 17.7923 17.8276 17.1629C18.0186 16.5335 18.0515 15.8666 17.9233 15.2215C17.7951 14.5763 17.5097 13.9727 17.0925 13.4642C16.6754 12.9556 16.1392 12.5578 15.5315 12.3059C14.9239 12.0541 14.2635 11.9559 13.6089 12.0203C12.9542 12.0846 12.3256 12.3094 11.7785 12.6747C11.2315 13.04 10.783 13.5345 10.4728 14.1146C10.1626 14.6946 10.0002 15.3422 9.99999 16C9.34204 15.9995 8.69413 16.1613 8.11368 16.4711C7.53323 16.7809 7.03817 17.2291 6.67236 17.776C6.30655 18.3229 6.08129 18.9516 6.01655 19.6063C5.9518 20.2611 6.04957 20.9217 6.30118 21.5296C6.5528 22.1376 6.95049 22.6741 7.45902 23.0916C7.96755 23.509 8.57121 23.7946 9.21651 23.923C9.86181 24.0514 10.5288 24.0187 11.1584 23.8277C11.788 23.6366 12.3608 23.2933 12.826 22.828L20 30" stroke="#DDB96E" stroke-width="2" stroke-linecap="round" stroke-linejoin="round"/>
<path d="M6 40H42C41.65 36.658 41.908 33.31 38 30H10C7.334 32 6 35.334 6 40Z" stroke="#DDB96E" stroke-width="2" stroke-linecap="round" stroke-linejoin="round"/>
</g>
<defs>
<clipPath id="clip0_664_4393">
<rect width="48" height="48" fill="white"/>
</clipPath>
</defs>
</svg>
