<svg width="606" height="168" viewBox="0 0 606 168" fill="none" xmlns="http://www.w3.org/2000/svg">
<path d="M66.828 34.4158C67.34 34.7998 67.628 35.2478 67.692 35.7598C67.756 36.2078 67.628 36.6878 67.308 37.1998C66.988 37.6479 66.572 37.9039 66.06 37.9678C65.612 37.9678 65.164 37.8398 64.716 37.5838C62.028 35.7278 59.084 34.2558 55.884 33.1678C52.748 32.0798 49.388 31.5358 45.804 31.5358C41.708 31.5358 37.868 32.3038 34.284 33.8399C30.764 35.3119 27.66 37.4239 24.972 40.1758C22.284 42.9278 20.172 46.1918 18.636 49.9678C17.1 53.7438 16.332 57.9038 16.332 62.4478C16.332 66.9918 17.1 71.1519 18.636 74.9279C20.172 78.7039 22.284 81.9679 24.972 84.7199C27.66 87.4719 30.764 89.6159 34.284 91.1519C37.868 92.6239 41.708 93.3599 45.804 93.3599C49.388 93.3599 52.748 92.8159 55.884 91.7279C59.02 90.6399 61.932 89.1999 64.62 87.4079C65.068 87.0879 65.548 86.9599 66.06 87.0239C66.572 87.0879 66.988 87.3439 67.308 87.7919C67.628 88.2399 67.756 88.7199 67.692 89.2319C67.628 89.7439 67.372 90.1599 66.924 90.4799C65.388 91.5679 63.436 92.6239 61.068 93.6479C58.764 94.6719 56.3 95.4719 53.676 96.0479C51.052 96.6879 48.428 97.0079 45.804 97.0079C41.196 97.0079 36.876 96.1439 32.844 94.4159C28.812 92.6879 25.26 90.2879 22.188 87.2159C19.116 84.0799 16.684 80.4319 14.892 76.2719C13.164 72.0479 12.3 67.4398 12.3 62.4478C12.3 57.4558 13.164 52.8798 14.892 48.7198C16.684 44.4958 19.116 40.8478 22.188 37.7758C25.26 34.6398 28.812 32.2078 32.844 30.4798C36.876 28.7518 41.196 27.8878 45.804 27.8878C49.708 27.8878 53.452 28.4638 57.036 29.6158C60.684 30.7678 63.948 32.3678 66.828 34.4158ZM123.383 71.8559C123.383 76.5919 122.359 80.8799 120.311 84.7199C118.263 88.4959 115.447 91.5039 111.863 93.7439C108.343 95.9199 104.311 97.0079 99.7665 97.0079C95.2865 97.0079 91.2545 95.9199 87.6705 93.7439C84.0865 91.5039 81.2385 88.4959 79.1265 84.7199C77.0785 80.8799 76.0545 76.5919 76.0545 71.8559C76.0545 67.0559 77.0785 62.7678 79.1265 58.9919C81.2385 55.1519 84.0865 52.1439 87.6705 49.9678C91.2545 47.7278 95.2865 46.6078 99.7665 46.6078C104.311 46.6078 108.343 47.7278 111.863 49.9678C115.447 52.1439 118.263 55.1519 120.311 58.9919C122.359 62.7678 123.383 67.0559 123.383 71.8559ZM119.542 71.8559C119.542 67.6959 118.679 64.0159 116.951 60.8159C115.287 57.5519 112.951 54.9918 109.943 53.1358C106.999 51.2158 103.607 50.2558 99.7665 50.2558C95.9905 50.2558 92.5985 51.2158 89.5905 53.1358C86.5825 54.9918 84.2145 57.5519 82.4865 60.8159C80.7585 64.0159 79.8945 67.6959 79.8945 71.8559C79.8945 75.9519 80.7585 79.6319 82.4865 82.8959C84.2145 86.0959 86.5825 88.6559 89.5905 90.5759C92.5985 92.4319 95.9905 93.3599 99.7665 93.3599C103.607 93.3599 106.999 92.4319 109.943 90.5759C112.951 88.6559 115.287 86.0959 116.951 82.8959C118.679 79.6319 119.542 75.9519 119.542 71.8559ZM156.76 47.5679C160.344 47.5679 163.608 48.5599 166.552 50.5438C169.56 52.4638 171.608 55.5038 172.696 59.6639L171.448 60.5279L171.928 58.7038C172.76 56.5918 174.2 54.7038 176.248 53.0399C178.36 51.3758 180.696 50.0638 183.256 49.1038C185.88 48.0799 188.408 47.5679 190.84 47.5679C194.68 47.5679 197.848 48.3999 200.344 50.0638C202.84 51.7278 204.664 53.9679 205.816 56.7839C207.032 59.5358 207.64 62.6718 207.64 66.1918V94.1279C207.64 94.6399 207.448 95.0879 207.064 95.4719C206.744 95.8559 206.296 96.0479 205.72 96.0479C205.144 96.0479 204.664 95.8559 204.28 95.4719C203.96 95.0879 203.8 94.6399 203.8 94.1279V66.5759C203.8 63.7599 203.32 61.1999 202.36 58.8958C201.464 56.5278 200.024 54.6718 198.04 53.3278C196.12 51.9199 193.592 51.2159 190.456 51.2159C187.704 51.2159 185.016 51.9199 182.392 53.3278C179.768 54.6718 177.592 56.5278 175.864 58.8958C174.2 61.1999 173.368 63.7599 173.368 66.5759V94.1279C173.368 94.6399 173.176 95.0879 172.792 95.4719C172.472 95.8559 172.024 96.0479 171.448 96.0479C170.872 96.0479 170.392 95.8559 170.008 95.4719C169.688 95.0879 169.528 94.6399 169.528 94.1279V66.0959C169.528 63.3439 169.08 60.8478 168.184 58.6079C167.352 56.3679 166.008 54.5759 164.152 53.2319C162.296 51.8879 159.832 51.2159 156.76 51.2159C154.072 51.2159 151.448 51.8879 148.888 53.2319C146.392 54.5759 144.312 56.3679 142.648 58.6079C140.984 60.8478 140.152 63.3439 140.152 66.0959V94.1279C140.152 94.6399 139.96 95.0879 139.576 95.4719C139.192 95.8559 138.744 96.0479 138.232 96.0479C137.656 96.0479 137.176 95.8559 136.792 95.4719C136.472 95.0879 136.312 94.6399 136.312 94.1279V50.0638C136.312 49.5518 136.504 49.1038 136.888 48.7198C137.272 48.3358 137.72 48.1439 138.232 48.1439C138.808 48.1439 139.256 48.3358 139.576 48.7198C139.96 49.1038 140.152 49.5518 140.152 50.0638V60.5279L137.272 65.4239C137.272 63.1839 137.816 61.0079 138.904 58.8958C139.992 56.7838 141.432 54.8959 143.224 53.2319C145.08 51.5038 147.16 50.1278 149.464 49.1038C151.832 48.0799 154.264 47.5679 156.76 47.5679ZM227.433 94.1279C227.433 94.6399 227.241 95.0879 226.857 95.4719C226.473 95.8559 226.025 96.0479 225.513 96.0479C224.937 96.0479 224.457 95.8559 224.073 95.4719C223.753 95.0879 223.593 94.6399 223.593 94.1279V48.5278C223.593 48.0158 223.785 47.5679 224.169 47.1839C224.553 46.7998 225.001 46.6078 225.513 46.6078C226.089 46.6078 226.537 46.7998 226.857 47.1839C227.241 47.5679 227.433 48.0158 227.433 48.5278V94.1279ZM225.513 40.0799C224.489 40.0799 223.657 39.7919 223.017 39.2159C222.441 38.6399 222.153 37.9039 222.153 37.0079V36.2398C222.153 35.3438 222.473 34.6078 223.113 34.0318C223.753 33.4558 224.585 33.1678 225.609 33.1678C226.505 33.1678 227.241 33.4558 227.817 34.0318C228.457 34.6078 228.777 35.3438 228.777 36.2398V37.0079C228.777 37.9039 228.457 38.6399 227.817 39.2159C227.241 39.7919 226.473 40.0799 225.513 40.0799ZM265.166 46.6078C269.198 46.6078 272.462 47.4078 274.958 49.0079C277.518 50.6078 279.374 52.7838 280.526 55.5358C281.742 58.2879 282.35 61.3599 282.35 64.7519V94.1279C282.35 94.6399 282.158 95.0879 281.774 95.4719C281.39 95.8559 280.942 96.0479 280.43 96.0479C279.854 96.0479 279.374 95.8559 278.99 95.4719C278.67 95.0879 278.51 94.6399 278.51 94.1279V65.1358C278.51 62.3839 278.03 59.8879 277.07 57.6479C276.174 55.4078 274.702 53.6158 272.654 52.2718C270.67 50.9278 268.046 50.2558 264.782 50.2558C261.966 50.2558 259.214 50.9278 256.526 52.2718C253.838 53.6158 251.598 55.4078 249.806 57.6479C248.078 59.8879 247.214 62.3839 247.214 65.1358V94.1279C247.214 94.6399 247.022 95.0879 246.638 95.4719C246.254 95.8559 245.806 96.0479 245.294 96.0479C244.718 96.0479 244.238 95.8559 243.854 95.4719C243.534 95.0879 243.374 94.6399 243.374 94.1279V50.0638C243.374 49.5518 243.566 49.1038 243.95 48.7198C244.334 48.3358 244.782 48.1439 245.294 48.1439C245.87 48.1439 246.318 48.3358 246.638 48.7198C247.022 49.1038 247.214 49.5518 247.214 50.0638V59.4719L244.814 64.0799C244.814 61.7759 245.422 59.5679 246.638 57.4559C247.854 55.3438 249.454 53.4878 251.438 51.8879C253.422 50.2238 255.598 48.9438 257.966 48.0479C260.398 47.0878 262.798 46.6078 265.166 46.6078ZM318.568 46.6078C321.448 46.6078 324.136 47.1198 326.632 48.1439C329.128 49.1679 331.304 50.5119 333.16 52.1758C335.08 53.8398 336.552 55.6318 337.576 57.5518C338.664 59.4718 339.208 61.3598 339.208 63.2159L337.96 59.6639V50.0638C337.96 49.5518 338.12 49.1038 338.44 48.7198C338.824 48.3358 339.304 48.1439 339.88 48.1439C340.456 48.1439 340.904 48.3358 341.224 48.7198C341.608 49.1038 341.8 49.5518 341.8 50.0638V91.3439C341.8 96.2719 340.776 100.528 338.728 104.112C336.744 107.696 333.992 110.448 330.472 112.368C326.952 114.288 322.856 115.248 318.184 115.248C315.624 115.248 313.032 114.896 310.408 114.192C307.848 113.552 305.704 112.72 303.976 111.696C302.248 110.672 301.384 109.584 301.384 108.432C301.384 107.92 301.512 107.504 301.768 107.184C302.088 106.864 302.504 106.704 303.016 106.704C303.656 106.704 304.232 107.056 304.744 107.76C305.32 108.464 306.312 109.104 307.72 109.68C308.296 109.872 309.064 110.128 310.024 110.448C311.048 110.768 312.264 111.024 313.672 111.216C315.08 111.472 316.648 111.6 318.376 111.6C324.456 111.6 329.224 109.712 332.68 105.936C336.2 102.224 337.96 97.3599 337.96 91.3439V81.8399L338.92 81.9359C338.152 84.6879 337.032 87.0239 335.56 88.9439C334.088 90.8639 332.392 92.4319 330.472 93.6479C328.616 94.7999 326.632 95.6319 324.52 96.1439C322.472 96.7199 320.488 97.0079 318.568 97.0079C314.152 97.0079 310.184 95.9199 306.664 93.7439C303.208 91.5039 300.456 88.4959 298.408 84.7199C296.36 80.8799 295.336 76.5599 295.336 71.7598C295.336 66.9599 296.36 62.6719 298.408 58.8958C300.456 55.0558 303.208 52.0478 306.664 49.8718C310.184 47.6958 314.152 46.6078 318.568 46.6078ZM318.76 50.2558C315.048 50.2558 311.688 51.1838 308.68 53.0399C305.736 54.8958 303.4 57.4558 301.672 60.7198C300.008 63.9198 299.176 67.5998 299.176 71.7598C299.176 75.8559 300.008 79.5359 301.672 82.7999C303.4 86.0639 305.736 88.6559 308.68 90.5759C311.688 92.4319 315.048 93.3599 318.76 93.3599C322.472 93.3599 325.8 92.4639 328.744 90.6719C331.688 88.8159 334.024 86.2879 335.752 83.0879C337.48 79.8239 338.344 76.0479 338.344 71.7598C338.344 67.4718 337.48 63.7278 335.752 60.5279C334.024 57.2638 331.688 54.7358 328.744 52.9438C325.8 51.1518 322.472 50.2558 318.76 50.2558ZM402.824 97.0079C397.832 97.0719 393.544 96.2399 389.96 94.5119C386.376 92.7839 382.92 90.2559 379.592 86.9279C379.464 86.7999 379.336 86.6399 379.208 86.4479C379.08 86.1919 379.016 85.8719 379.016 85.4879C379.016 84.9759 379.24 84.4959 379.688 84.0479C380.136 83.5359 380.616 83.2799 381.128 83.2799C381.704 83.2799 382.248 83.5679 382.76 84.1439C385.32 87.0879 388.296 89.3279 391.688 90.8639C395.144 92.3999 398.728 93.1679 402.44 93.1679C405.704 93.1679 408.616 92.6559 411.176 91.6319C413.736 90.5439 415.752 89.0399 417.224 87.1199C418.696 85.1359 419.432 82.8319 419.432 80.2079C419.368 76.9439 418.472 74.3199 416.744 72.3359C415.016 70.3518 412.776 68.7198 410.024 67.4399C407.336 66.1599 404.488 64.9759 401.48 63.8879C399.112 62.9919 396.776 62.0639 394.472 61.1038C392.168 60.1439 390.088 58.9919 388.232 57.6479C386.376 56.2399 384.904 54.5118 383.816 52.4638C382.728 50.3518 382.184 47.7598 382.184 44.6878C382.184 41.5518 383.016 38.7358 384.68 36.2398C386.408 33.6798 388.84 31.6638 391.976 30.1918C395.176 28.6558 398.952 27.8878 403.304 27.8878C406.952 27.8878 410.504 28.5598 413.96 29.9039C417.416 31.1838 420.136 33.1358 422.12 35.7598C422.76 36.6558 423.08 37.3278 423.08 37.7758C423.08 38.2238 422.824 38.6718 422.312 39.1198C421.864 39.5678 421.352 39.7918 420.776 39.7918C420.264 39.7918 419.848 39.5998 419.528 39.2159C418.376 37.6798 416.968 36.3678 415.304 35.2799C413.704 34.1278 411.88 33.2638 409.832 32.6878C407.784 32.0478 405.608 31.7278 403.304 31.7278C400.168 31.7278 397.32 32.2398 394.76 33.2638C392.2 34.2878 390.152 35.7598 388.616 37.6798C387.08 39.5358 386.312 41.8398 386.312 44.5919C386.312 47.5359 387.144 49.9679 388.808 51.8879C390.536 53.7438 392.712 55.3118 395.336 56.5919C397.96 57.8078 400.648 58.9278 403.4 59.9518C405.832 60.7839 408.232 61.7119 410.6 62.7359C413.032 63.6959 415.208 64.9118 417.128 66.3839C419.112 67.8559 420.68 69.7119 421.832 71.9518C422.984 74.1919 423.56 77.0079 423.56 80.3999C423.56 83.3439 422.696 86.0639 420.968 88.5599C419.304 91.0559 416.936 93.0719 413.864 94.6079C410.792 96.1439 407.112 96.9439 402.824 97.0079ZM480.758 71.8559C480.758 76.5919 479.734 80.8799 477.686 84.7199C475.638 88.4959 472.822 91.5039 469.238 93.7439C465.718 95.9199 461.686 97.0079 457.142 97.0079C452.662 97.0079 448.63 95.9199 445.046 93.7439C441.462 91.5039 438.614 88.4959 436.502 84.7199C434.454 80.8799 433.43 76.5919 433.43 71.8559C433.43 67.0559 434.454 62.7678 436.502 58.9919C438.614 55.1519 441.462 52.1439 445.046 49.9678C448.63 47.7278 452.662 46.6078 457.142 46.6078C461.686 46.6078 465.718 47.7278 469.238 49.9678C472.822 52.1439 475.638 55.1519 477.686 58.9919C479.734 62.7678 480.758 67.0559 480.758 71.8559ZM476.917 71.8559C476.917 67.6959 476.054 64.0159 474.326 60.8159C472.662 57.5519 470.326 54.9918 467.318 53.1358C464.374 51.2158 460.982 50.2558 457.142 50.2558C453.366 50.2558 449.974 51.2158 446.966 53.1358C443.958 54.9918 441.59 57.5519 439.862 60.8159C438.134 64.0159 437.27 67.6959 437.27 71.8559C437.27 75.9519 438.134 79.6319 439.862 82.8959C441.59 86.0959 443.958 88.6559 446.966 90.5759C449.974 92.4319 453.366 93.3599 457.142 93.3599C460.982 93.3599 464.374 92.4319 467.318 90.5759C470.326 88.6559 472.662 86.0959 474.326 82.8959C476.054 79.6319 476.917 75.9519 476.917 71.8559ZM538.039 71.8559C538.039 76.5919 537.015 80.8799 534.967 84.7199C532.919 88.4959 530.103 91.5039 526.519 93.7439C522.999 95.9199 518.967 97.0079 514.423 97.0079C509.943 97.0079 505.911 95.9199 502.327 93.7439C498.743 91.5039 495.895 88.4959 493.783 84.7199C491.735 80.8799 490.711 76.5919 490.711 71.8559C490.711 67.0559 491.735 62.7678 493.783 58.9919C495.895 55.1519 498.743 52.1439 502.327 49.9678C505.911 47.7278 509.943 46.6078 514.423 46.6078C518.967 46.6078 522.999 47.7278 526.519 49.9678C530.103 52.1439 532.919 55.1519 534.967 58.9919C537.015 62.7678 538.039 67.0559 538.039 71.8559ZM534.199 71.8559C534.199 67.6959 533.335 64.0159 531.607 60.8159C529.943 57.5519 527.607 54.9918 524.599 53.1358C521.655 51.2158 518.263 50.2558 514.423 50.2558C510.647 50.2558 507.255 51.2158 504.247 53.1358C501.239 54.9918 498.871 57.5519 497.143 60.8159C495.415 64.0159 494.551 67.6959 494.551 71.8559C494.551 75.9519 495.415 79.6319 497.143 82.8959C498.871 86.0959 501.239 88.6559 504.247 90.5759C507.255 92.4319 510.647 93.3599 514.423 93.3599C518.263 93.3599 521.655 92.4319 524.599 90.5759C527.607 88.6559 529.943 86.0959 531.607 82.8959C533.335 79.6319 534.199 75.9519 534.199 71.8559ZM572.76 46.6078C576.792 46.6078 580.056 47.4078 582.552 49.0079C585.112 50.6078 586.968 52.7838 588.12 55.5358C589.336 58.2879 589.944 61.3599 589.944 64.7519V94.1279C589.944 94.6399 589.752 95.0879 589.368 95.4719C588.984 95.8559 588.536 96.0479 588.024 96.0479C587.448 96.0479 586.968 95.8559 586.584 95.4719C586.264 95.0879 586.104 94.6399 586.104 94.1279V65.1358C586.104 62.3839 585.624 59.8879 584.664 57.6479C583.768 55.4078 582.296 53.6158 580.248 52.2718C578.264 50.9278 575.64 50.2558 572.376 50.2558C569.56 50.2558 566.808 50.9278 564.12 52.2718C561.432 53.6158 559.192 55.4078 557.4 57.6479C555.672 59.8879 554.808 62.3839 554.808 65.1358V94.1279C554.808 94.6399 554.616 95.0879 554.232 95.4719C553.848 95.8559 553.4 96.0479 552.888 96.0479C552.312 96.0479 551.832 95.8559 551.448 95.4719C551.128 95.0879 550.968 94.6399 550.968 94.1279V50.0638C550.968 49.5518 551.16 49.1038 551.544 48.7198C551.928 48.3358 552.376 48.1439 552.888 48.1439C553.464 48.1439 553.912 48.3358 554.232 48.7198C554.616 49.1038 554.808 49.5518 554.808 50.0638V59.4719L552.408 64.0799C552.408 61.7759 553.016 59.5679 554.232 57.4559C555.448 55.3438 557.048 53.4878 559.032 51.8879C561.016 50.2238 563.192 48.9438 565.56 48.0479C567.992 47.0878 570.392 46.6078 572.76 46.6078Z" fill="#F8F1E2"/>
<g filter="url(#filter0_d_3806_9369)">
<rect x="8" y="148.708" width="591.359" height="12.1318" rx="6.06588" stroke="#F8F1E2" shape-rendering="crispEdges"/>
</g>
<rect x="11.9922" y="152.849" width="304" height="3.85059" rx="1.92529" fill="#F8F1E2"/>
<defs>
<filter id="filter0_d_3806_9369" x="0.2" y="141.908" width="604.959" height="25.7318" filterUnits="userSpaceOnUse" color-interpolation-filters="sRGB">
<feFlood flood-opacity="0" result="BackgroundImageFix"/>
<feColorMatrix in="SourceAlpha" type="matrix" values="0 0 0 0 0 0 0 0 0 0 0 0 0 0 0 0 0 0 127 0" result="hardAlpha"/>
<feOffset dx="-1"/>
<feGaussianBlur stdDeviation="3.15"/>
<feComposite in2="hardAlpha" operator="out"/>
<feColorMatrix type="matrix" values="0 0 0 0 1 0 0 0 0 1 0 0 0 0 1 0 0 0 1 0"/>
<feBlend mode="normal" in2="BackgroundImageFix" result="effect1_dropShadow_3806_9369"/>
<feBlend mode="normal" in="SourceGraphic" in2="effect1_dropShadow_3806_9369" result="shape"/>
</filter>
</defs>
</svg>
