<svg width="25" height="25" viewBox="0 0 25 25" fill="none" xmlns="http://www.w3.org/2000/svg">
<g clip-path="url(#clip0_3742_6342)">
<path d="M3.70313 12.9062C3.70312 14.0881 3.93592 15.2585 4.38821 16.3504C4.8405 17.4423 5.50344 18.4345 6.33916 19.2702C7.17489 20.1059 8.16704 20.7689 9.25897 21.2212C10.3509 21.6735 11.5212 21.9062 12.7031 21.9062C13.885 21.9062 15.0553 21.6735 16.1473 21.2212C17.2392 20.7689 18.2314 20.1059 19.0671 19.2702C19.9028 18.4345 20.5658 17.4423 21.018 16.3504C21.4703 15.2585 21.7031 14.0881 21.7031 12.9062C21.7031 11.7244 21.4703 10.554 21.018 9.4621C20.5658 8.37017 19.9028 7.37802 19.0671 6.54229C18.2314 5.70656 17.2392 5.04363 16.1473 4.59133C15.0553 4.13904 13.885 3.90625 12.7031 3.90625C11.5212 3.90625 10.3509 4.13904 9.25897 4.59133C8.16704 5.04363 7.17489 5.70656 6.33916 6.54229C5.50344 7.37802 4.8405 8.37017 4.38821 9.4621C3.93592 10.554 3.70312 11.7244 3.70313 12.9062Z" fill="#D75353" stroke="black" stroke-width="1.5" stroke-linecap="round" stroke-linejoin="round"/>
<path d="M12.7031 9.90625V13.9062" stroke="black" stroke-width="1.5" stroke-linecap="round" stroke-linejoin="round"/>
<path d="M12.7031 16.9062V16.9163" stroke="black" stroke-width="1.5" stroke-linecap="round" stroke-linejoin="round"/>
</g>
<defs>
<clipPath id="clip0_3742_6342">
<rect width="24" height="24" fill="white" transform="translate(0.703125 0.90625)"/>
</clipPath>
</defs>
</svg>
