<svg width="48" height="48" viewBox="0 0 48 48" fill="none" xmlns="http://www.w3.org/2000/svg">
<g clip-path="url(#clip0_664_4398)">
<path d="M18 8C18 7.46957 18.2107 6.96086 18.5858 6.58579C18.9609 6.21071 19.4696 6 20 6H28C28.5304 6 29.0391 6.21071 29.4142 6.58579C29.7893 6.96086 30 7.46957 30 8V10C30 10.5304 29.7893 11.0391 29.4142 11.4142C29.0391 11.7893 28.5304 12 28 12H20C19.4696 12 18.9609 11.7893 18.5858 11.4142C18.2107 11.0391 18 10.5304 18 10V8Z" stroke="#DDB96E" stroke-width="2" stroke-linecap="round" stroke-linejoin="round"/>
<path d="M20 12V13.96C20 15.714 18.732 17.212 17 17.5C15.268 17.788 14 19.286 14 21.04V38C14 39.0609 14.4214 40.0783 15.1716 40.8284C15.9217 41.5786 16.9391 42 18 42H30C31.0609 42 32.0783 41.5786 32.8284 40.8284C33.5786 40.0783 34 39.0609 34 38V21.04C34 19.286 32.732 17.788 31 17.5C30.1619 17.3604 29.4005 16.928 28.8512 16.2798C28.3019 15.6316 28.0003 14.8096 28 13.96V12" stroke="#DDB96E" stroke-width="2" stroke-linecap="round" stroke-linejoin="round"/>
<path d="M22 30H26" stroke="#DDB96E" stroke-width="2" stroke-linecap="round" stroke-linejoin="round"/>
</g>
<defs>
<clipPath id="clip0_664_4398">
<rect width="48" height="48" fill="white"/>
</clipPath>
</defs>
</svg>
