<svg width="66" height="68" viewBox="0 0 66 68" fill="none" xmlns="http://www.w3.org/2000/svg">
<path d="M58.5488 54.8237H50.1338C49.515 54.8237 49.0088 54.3175 49.0088 53.6987C49.0088 53.08 49.515 52.5737 50.1338 52.5737H58.5488C60.945 52.5737 62.8913 50.6275 62.8913 48.2312V27.1712C62.8883 26.0215 62.4295 24.9198 61.6154 24.1079C60.8013 23.296 59.6985 22.84 58.5488 22.84H7.45126C6.30151 22.84 5.19868 23.296 4.38462 24.1079C3.57057 24.9198 3.11174 26.0215 3.10876 27.1712V48.2312C3.10876 50.6275 5.05501 52.5737 7.45126 52.5737H15.8663C16.485 52.5737 16.9913 53.08 16.9913 53.6987C16.9913 54.3175 16.485 54.8237 15.8663 54.8237H7.45126C3.81751 54.8237 0.858765 51.865 0.858765 48.2312V27.1712C0.858765 23.5487 3.81751 20.59 7.45126 20.59H58.56C62.1938 20.59 65.1525 23.5375 65.1525 27.1712V48.2312C65.1413 51.865 62.1825 54.8237 58.5488 54.8237Z" fill="white" fill-opacity="0.8"/>
<path d="M57.12 22.84H8.88C8.26125 22.84 7.755 22.3338 7.755 21.715V9.71126C7.755 9.09251 8.26125 8.58626 8.88 8.58626H15.8663C16.485 8.58626 16.9913 9.09251 16.9913 9.71126C16.9913 10.33 16.485 10.8363 15.8663 10.8363H10.005V20.59H55.995V10.8363H50.1338C49.515 10.8363 49.0088 10.33 49.0088 9.71126C49.0088 9.09251 49.515 8.58626 50.1338 8.58626H57.12C57.7388 8.58626 58.245 9.09251 58.245 9.71126V21.715C58.245 22.345 57.7388 22.84 57.12 22.84Z" fill="white" fill-opacity="0.8"/>
<path d="M50.145 22.84H15.855C15.2363 22.84 14.73 22.3338 14.73 21.715V1.8475C14.73 1.22875 15.2363 0.722504 15.855 0.722504H50.1338C50.7525 0.722504 51.2588 1.22875 51.2588 1.8475V21.715C51.27 22.3338 50.7638 22.84 50.145 22.84ZM16.98 20.59H49.0088V2.9725H16.98V20.59ZM50.145 67.2775H15.855C15.2363 67.2775 14.73 66.7713 14.73 66.1525V40.9638C14.73 40.345 15.2363 39.8388 15.855 39.8388H50.1338C50.7525 39.8388 51.2588 40.345 51.2588 40.9638V66.1525C51.27 66.7713 50.7638 67.2775 50.145 67.2775ZM16.98 65.0275H49.0088V42.0888H16.98V65.0275ZM64.0163 33.2913H1.98376C1.36501 33.2913 0.858765 32.785 0.858765 32.1663C0.858765 31.5475 1.36501 31.0413 1.98376 31.0413H64.0163C64.635 31.0413 65.1413 31.5475 65.1413 32.1663C65.1413 32.785 64.635 33.2913 64.0163 33.2913Z" fill="white" fill-opacity="0.8"/>
<path d="M15.855 67.2775C15.6425 67.2773 15.4344 67.2171 15.2546 67.1037C15.0748 66.9904 14.9308 66.8285 14.8391 66.6368C14.7473 66.4451 14.7117 66.2314 14.7362 66.0203C14.7606 65.8092 14.8443 65.6093 14.9775 65.4438L24.2363 53.98C24.45 53.7213 24.765 53.5638 25.1025 53.5638H25.1138C25.44 53.5638 25.7663 53.71 25.98 53.9688L31.29 60.2913C31.3854 60.4042 31.4576 60.5349 31.5024 60.6758C31.5472 60.8167 31.5639 60.965 31.5513 61.1124C31.5388 61.2597 31.4973 61.4031 31.4293 61.5344C31.3613 61.6657 31.2681 61.7823 31.155 61.8775C30.6825 62.2713 29.9738 62.215 29.5688 61.7425L25.1363 56.4663L16.7325 66.8725C16.5075 67.1313 16.1925 67.2775 15.855 67.2775Z" fill="white" fill-opacity="0.8"/>
<path d="M26.2725 67.2775C26.06 67.2773 25.8519 67.2171 25.6721 67.1037C25.4924 66.9904 25.3483 66.8285 25.2566 66.6368C25.1648 66.4451 25.1292 66.2314 25.1537 66.0203C25.1782 65.8092 25.2618 65.6094 25.395 65.4438L37.0725 50.9763C37.2863 50.7175 37.6013 50.56 37.9388 50.56H37.95C38.2763 50.56 38.6025 50.7063 38.805 50.965L51 65.4325C51.0953 65.5455 51.1674 65.6762 51.2122 65.8171C51.257 65.958 51.2736 66.1063 51.261 66.2536C51.2485 66.4009 51.2071 66.5443 51.1391 66.6756C51.0712 66.8068 50.978 66.9235 50.865 67.0188C50.752 67.114 50.6213 67.1861 50.4804 67.2309C50.3396 67.2757 50.1912 67.2923 50.0439 67.2798C49.8966 67.2672 49.7533 67.2258 49.622 67.1579C49.4907 67.0899 49.3741 66.9968 49.2788 66.8838L37.9725 53.4513L27.15 66.8613C26.925 67.1313 26.5988 67.2775 26.2725 67.2775ZM29.7713 52.81C28.1063 52.81 26.745 51.4488 26.745 49.7838C26.745 48.1188 28.1063 46.7575 29.7713 46.7575C31.4363 46.7575 32.7975 48.1188 32.7975 49.7838C32.7975 51.4488 31.4363 52.81 29.7713 52.81ZM29.7713 49.0075C29.3438 49.0075 28.995 49.3563 28.995 49.7838C28.995 50.2113 29.3438 50.56 29.7713 50.56C30.1988 50.56 30.5475 50.2113 30.5475 49.7838C30.5475 49.3563 30.1988 49.0075 29.7713 49.0075Z" fill="white" fill-opacity="0.8"/>
</svg>
