<svg width="48" height="48" viewBox="0 0 48 48" fill="none" xmlns="http://www.w3.org/2000/svg">
<g clip-path="url(#clip0_664_4417)">
<path d="M12 11C12 12.3261 13.2643 13.5979 15.5147 14.5355C17.7652 15.4732 20.8174 16 24 16C27.1826 16 30.2348 15.4732 32.4853 14.5355C34.7357 13.5979 36 12.3261 36 11C36 9.67392 34.7357 8.40215 32.4853 7.46447C30.2348 6.52678 27.1826 6 24 6C20.8174 6 17.7652 6.52678 15.5147 7.46447C13.2643 8.40215 12 9.67392 12 11Z" stroke="#DDB96E" stroke-width="2" stroke-linecap="round" stroke-linejoin="round"/>
<path d="M36.0001 11V20.252C36.5806 19.9891 37.233 19.9298 37.8514 20.0838C38.4699 20.2378 39.0183 20.596 39.4077 21.1005C39.7972 21.605 40.005 22.2262 39.9974 22.8635C39.9899 23.5008 39.7674 24.1169 39.3661 24.612L39.1721 24.828L36.0001 28V36C36.0001 39.22 30.9201 41.85 24.5501 42H24.0001C17.3721 42 12.0001 39.314 12.0001 36V32L8.82806 28.828C8.35893 28.3595 8.06933 27.7411 8.00983 27.0808C7.95033 26.4204 8.12472 25.7602 8.50254 25.2154C8.88036 24.6706 9.43758 24.2758 10.0769 24.1001C10.7161 23.9244 11.3968 23.9789 12.0001 24.254V11" stroke="#DDB96E" stroke-width="2" stroke-linecap="round" stroke-linejoin="round"/>
<path d="M20 25V28" stroke="#DDB96E" stroke-width="2" stroke-linecap="round" stroke-linejoin="round"/>
<path d="M28 32V34" stroke="#DDB96E" stroke-width="2" stroke-linecap="round" stroke-linejoin="round"/>
</g>
<defs>
<clipPath id="clip0_664_4417">
<rect width="48" height="48" fill="white"/>
</clipPath>
</defs>
</svg>
