<svg width="32" height="32" viewBox="0 0 32 32" fill="none" xmlns="http://www.w3.org/2000/svg">
<g clip-path="url(#clip0_43_4439)">
<g filter="url(#filter0_d_43_4439)">
<path d="M5.3335 8.00001C5.3335 7.29277 5.61445 6.61449 6.11454 6.11439C6.61464 5.61429 7.29292 5.33334 8.00016 5.33334H24.0002C24.7074 5.33334 25.3857 5.61429 25.8858 6.11439C26.3859 6.61449 26.6668 7.29277 26.6668 8.00001V24C26.6668 24.7073 26.3859 25.3855 25.8858 25.8856C25.3857 26.3857 24.7074 26.6667 24.0002 26.6667H8.00016C7.29292 26.6667 6.61464 26.3857 6.11454 25.8856C5.61445 25.3855 5.3335 24.7073 5.3335 24V8.00001Z" stroke="#0A66C2" stroke-width="1.5" stroke-linecap="round" stroke-linejoin="round" shape-rendering="crispEdges"/>
</g>
<path d="M10.6665 14.6667V21.3333" stroke="#0A66C2" stroke-width="1.5" stroke-linecap="round" stroke-linejoin="round"/>
<path d="M10.6665 10.6667V10.68" stroke="#0A66C2" stroke-width="1.5" stroke-linecap="round" stroke-linejoin="round"/>
<path d="M16 21.3333V14.6667" stroke="#0A66C2" stroke-width="1.5" stroke-linecap="round" stroke-linejoin="round"/>
<path d="M21.3333 21.3333V17.3333C21.3333 16.6261 21.0524 15.9478 20.5523 15.4477C20.0522 14.9476 19.3739 14.6667 18.6667 14.6667C17.9594 14.6667 17.2811 14.9476 16.781 15.4477C16.281 15.9478 16 16.6261 16 17.3333" stroke="#0A66C2" stroke-width="1.5" stroke-linecap="round" stroke-linejoin="round"/>
</g>
<defs>
<filter id="filter0_d_43_4439" x="0.583496" y="0.583344" width="30.8335" height="30.8333" filterUnits="userSpaceOnUse" color-interpolation-filters="sRGB">
<feFlood flood-opacity="0" result="BackgroundImageFix"/>
<feColorMatrix in="SourceAlpha" type="matrix" values="0 0 0 0 0 0 0 0 0 0 0 0 0 0 0 0 0 0 127 0" result="hardAlpha"/>
<feOffset/>
<feGaussianBlur stdDeviation="2"/>
<feComposite in2="hardAlpha" operator="out"/>
<feColorMatrix type="matrix" values="0 0 0 0 0.0392157 0 0 0 0 0.4 0 0 0 0 0.760784 0 0 0 1 0"/>
<feBlend mode="normal" in2="BackgroundImageFix" result="effect1_dropShadow_43_4439"/>
<feBlend mode="normal" in="SourceGraphic" in2="effect1_dropShadow_43_4439" result="shape"/>
</filter>
<clipPath id="clip0_43_4439">
<rect width="32" height="32" fill="white"/>
</clipPath>
</defs>
</svg>
