<svg width="24" height="25" viewBox="0 0 24 25" fill="none" xmlns="http://www.w3.org/2000/svg">
<g clip-path="url(#clip0_1131_1608)">
<path d="M3 21.4997L4.65 17.6997C3.38766 15.9078 2.82267 13.7168 3.06104 11.5378C3.29942 9.3589 4.32479 7.34186 5.94471 5.86525C7.56463 4.38863 9.66775 3.55394 11.8594 3.51782C14.051 3.48171 16.1805 4.24665 17.8482 5.6691C19.5159 7.09154 20.6071 9.0737 20.9172 11.2436C21.2272 13.4135 20.7347 15.6219 19.5321 17.4545C18.3295 19.2871 16.4994 20.6177 14.3854 21.1968C12.2713 21.7759 10.0186 21.5636 8.05 20.5997L3 21.4997Z" stroke="white" stroke-linecap="round" stroke-linejoin="round"/>
<path d="M9 10.5C9 10.6326 9.05268 10.7598 9.14645 10.8536C9.24021 10.9473 9.36739 11 9.5 11C9.63261 11 9.75979 10.9473 9.85355 10.8536C9.94732 10.7598 10 10.6326 10 10.5V9.5C10 9.36739 9.94732 9.24021 9.85355 9.14645C9.75979 9.05268 9.63261 9 9.5 9C9.36739 9 9.24021 9.05268 9.14645 9.14645C9.05268 9.24021 9 9.36739 9 9.5V10.5ZM9 10.5C9 11.8261 9.52678 13.0979 10.4645 14.0355C11.4021 14.9732 12.6739 15.5 14 15.5M14 15.5H15C15.1326 15.5 15.2598 15.4473 15.3536 15.3536C15.4473 15.2598 15.5 15.1326 15.5 15C15.5 14.8674 15.4473 14.7402 15.3536 14.6464C15.2598 14.5527 15.1326 14.5 15 14.5H14C13.8674 14.5 13.7402 14.5527 13.6464 14.6464C13.5527 14.7402 13.5 14.8674 13.5 15C13.5 15.1326 13.5527 15.2598 13.6464 15.3536C13.7402 15.4473 13.8674 15.5 14 15.5Z" stroke="white" stroke-linecap="round" stroke-linejoin="round"/>
</g>
<defs>
<clipPath id="clip0_1131_1608">
<rect width="24" height="24" fill="white" transform="translate(0 0.5)"/>
</clipPath>
</defs>
</svg>
