<svg width="32" height="32" viewBox="0 0 32 32" fill="none" xmlns="http://www.w3.org/2000/svg">
<g clip-path="url(#clip0_43_4445)">
<g filter="url(#filter0_d_43_4445)">
<path d="M4 28L6.2 22.9333C4.51688 20.5441 3.76356 17.6227 4.08139 14.7175C4.39923 11.8122 5.76638 9.12284 7.92628 7.15402C10.0862 5.18519 12.8903 4.07227 15.8125 4.02412C18.7347 3.97597 21.574 4.99589 23.7976 6.89249C26.0212 8.78908 27.4762 11.432 27.8896 14.3251C28.303 17.2183 27.6463 20.1629 26.0428 22.6063C24.4393 25.0498 21.9993 26.824 19.1805 27.5961C16.3618 28.3683 13.3582 28.0852 10.7333 26.8L4 28Z" stroke="#25D366" stroke-width="1.5" stroke-linecap="round" stroke-linejoin="round" shape-rendering="crispEdges"/>
</g>
<path d="M12 13.3333C12 13.5102 12.0702 13.6797 12.1953 13.8047C12.3203 13.9298 12.4899 14 12.6667 14C12.8435 14 13.013 13.9298 13.1381 13.8047C13.2631 13.6797 13.3333 13.5102 13.3333 13.3333V12C13.3333 11.8232 13.2631 11.6536 13.1381 11.5286C13.013 11.4036 12.8435 11.3333 12.6667 11.3333C12.4899 11.3333 12.3203 11.4036 12.1953 11.5286C12.0702 11.6536 12 11.8232 12 12V13.3333ZM12 13.3333C12 15.1015 12.7024 16.7971 13.9526 18.0474C15.2029 19.2976 16.8986 20 18.6667 20M18.6667 20H20C20.1768 20 20.3464 19.9298 20.4714 19.8047C20.5964 19.6797 20.6667 19.5102 20.6667 19.3333C20.6667 19.1565 20.5964 18.987 20.4714 18.8619C20.3464 18.7369 20.1768 18.6667 20 18.6667H18.6667C18.4899 18.6667 18.3203 18.7369 18.1953 18.8619C18.0702 18.987 18 19.1565 18 19.3333C18 19.5102 18.0702 19.6797 18.1953 19.8047C18.3203 19.9298 18.4899 20 18.6667 20Z" stroke="#25D366" stroke-width="1.5" stroke-linecap="round" stroke-linejoin="round"/>
</g>
<defs>
<filter id="filter0_d_43_4445" x="-0.75" y="-0.727509" width="33.5098" height="33.5" filterUnits="userSpaceOnUse" color-interpolation-filters="sRGB">
<feFlood flood-opacity="0" result="BackgroundImageFix"/>
<feColorMatrix in="SourceAlpha" type="matrix" values="0 0 0 0 0 0 0 0 0 0 0 0 0 0 0 0 0 0 127 0" result="hardAlpha"/>
<feOffset/>
<feGaussianBlur stdDeviation="2"/>
<feComposite in2="hardAlpha" operator="out"/>
<feColorMatrix type="matrix" values="0 0 0 0 0.145098 0 0 0 0 0.827451 0 0 0 0 0.4 0 0 0 1 0"/>
<feBlend mode="normal" in2="BackgroundImageFix" result="effect1_dropShadow_43_4445"/>
<feBlend mode="normal" in="SourceGraphic" in2="effect1_dropShadow_43_4445" result="shape"/>
</filter>
<clipPath id="clip0_43_4445">
<rect width="32" height="32" fill="white"/>
</clipPath>
</defs>
</svg>
